<?xml version="1.0" encoding="UTF-8" standalone="no"?>
<!-- Generator: Adobe Illustrator 9.0, SVG Export Plug-In  -->
<!-- This set of SVG files is a complete cards game with figures, numbers	-->
<!--    and backs of cards completely designed in SVG.				-->
<!--    									-->
<!--    Copyright (C) 2004 David Bellot						-->
<!--										-->
<!--    This library is free software; you can redistribute it and/or		-->
<!--    modify it under the terms of the GNU Lesser General Public		-->
<!--    License as published by the Free Software Foundation; either		-->
<!--    version 2 of the License, or (at your option) any later version		-->
<!--										-->
<!--    This library is distributed in the hope that it will be useful,		-->
<!--    but WITHOUT ANY WARRANTY; without even the implied warranty of		-->
<!--    MERCHANTABILITY or FITNESS FOR A PARTICULAR PURPOSE.  See the GNU	-->
<!--    Lesser General Public License for more details.				-->
<!--										-->
<!--    You should have received a copy of the GNU Lesser General Public	-->
<!--    License along with this library; if not, write to the Free Software	-->
<!--    Foundation, Inc., 59 Temple Place, Suite 330, Boston, MA 02111-1307  USA-->
<!--										-->
<!--    Contact the author David Bellot at bellot@stat.berkeley.edu or 		-->
<!--    david.bellot@free.fr or yimyom@users.sourceforge.net			-->
<svg
   xmlns:dc="http://purl.org/dc/elements/1.1/"
   xmlns:cc="http://creativecommons.org/ns#"
   xmlns:rdf="http://www.w3.org/1999/02/22-rdf-syntax-ns#"
   xmlns:svg="http://www.w3.org/2000/svg"
   xmlns="http://www.w3.org/2000/svg"
   xmlns:xlink="http://www.w3.org/1999/xlink"
   xmlns:sodipodi="http://sodipodi.sourceforge.net/DTD/sodipodi-0.dtd"
   xmlns:inkscape="http://www.inkscape.org/namespaces/inkscape"
   width="208"
   height="303"
   viewBox="0 0 167.08643 242.66748"
   xml:space="preserve"
   id="svg2"
   sodipodi:version="0.32"
   inkscape:version="0.46"
   sodipodi:docname="11_of_diamonds.svg"
   inkscape:output_extension="org.inkscape.output.svg.inkscape"
   sodipodi:docbase="C:\Documents and Settings\Flanker\Desktop\Temporanei\SVG\Carte"
   version="1.0"><metadata
   id="metadata90"><rdf:RDF><cc:Work
       rdf:about=""><dc:format>image/svg+xml</dc:format><dc:type
         rdf:resource="http://purl.org/dc/dcmitype/StillImage" /></cc:Work></rdf:RDF></metadata><defs
   id="defs88"><inkscape:perspective
   sodipodi:type="inkscape:persp3d"
   inkscape:vp_x="0 : 151.5 : 1"
   inkscape:vp_y="0 : 1000 : 0"
   inkscape:vp_z="208 : 151.5 : 1"
   inkscape:persp3d-origin="104 : 101 : 1"
   id="perspective2608" />
			
			
		
			
			
		</defs><sodipodi:namedview
   inkscape:window-height="785"
   inkscape:window-width="1280"
   inkscape:pageshadow="2"
   inkscape:pageopacity="0.0"
   guidetolerance="10.0"
   gridtolerance="10.0"
   objecttolerance="10.0"
   borderopacity="1.0"
   bordercolor="#666666"
   pagecolor="#ffffff"
   id="base"
   inkscape:zoom="1.3316832"
   inkscape:cx="230.65515"
   inkscape:cy="199.40726"
   inkscape:window-x="0"
   inkscape:window-y="0"
   inkscape:current-layer="svg2"
   inkscape:showpageshadow="false"
   width="208px"
   height="303px"
   showgrid="false" />
	<path
   id="path5"
   d="M 166.83643,235.89281 C 166.83643,239.68452 163.75049,242.78371 159.96632,242.78371 L 7.1113279,242.78371 C 3.3359375,242.78371 0.25,239.68452 0.25,235.89281 L 0.25,6.7746664 C 0.25,2.9883464 3.3359375,-0.11623011 7.1113279,-0.11623011 L 159.96632,-0.11623011 C 163.75049,-0.11623011 166.83643,2.9883464 166.83643,6.7746664 L 166.83643,235.89281 L 166.83643,235.89281 z "
   style="fill:#ffffff;fill-rule:nonzero;stroke:#000000;stroke-width:0.5;stroke-miterlimit:4" /><path
   style="fill:#e61408;fill-opacity:1;fill-rule:nonzero;stroke-miterlimit:4"
   id="path5887"
   d="M 9.8114044,25.871094 L 9.8114044,24.402344 L 11.311404,24.402344 L 11.311404,9.8041994 L 9.6239044,12.027832 L 9.6239044,10.227051 L 11.652224,7.4960939 L 13.342654,7.4960939 L 13.342654,24.402344 L 14.873904,24.402344 L 14.873904,25.871094 L 9.8114044,25.871094 L 9.8114044,25.871094 z" /><path
   style="fill:#e61408;fill-opacity:1;fill-rule:nonzero;stroke-miterlimit:4"
   id="path5893"
   d="M 157.27551,216.79639 L 157.27551,218.26514 L 155.77551,218.26514 L 155.77551,232.86377 L 157.46301,230.64014 L 157.46301,232.44092 L 155.43372,235.17139 L 153.74426,235.17139 L 153.74426,218.26514 L 152.21301,218.26514 L 152.21301,216.79639 L 157.27551,216.79639 L 157.27551,216.79639 z" />
<path
   style="fill:#e61408;fill-opacity:1;stroke:none;stroke-width:1.49999988;stroke-linecap:round;stroke-linejoin:round;stroke-miterlimit:4;stroke-dasharray:none;stroke-opacity:1"
   d="M 47.73765,13.605876 C 47.71153,14.501686 47.1799,17.861186 41.38655,23.421196 C 35.81089,28.772316 33.20723,29.414706 32.42474,29.471056 C 33.20723,29.527396 35.81089,30.169806 41.38655,35.520907 C 47.1799,41.080917 47.71153,44.440407 47.73765,45.336227 C 47.76377,44.440417 48.29539,41.080927 54.088736,35.520907 C 59.664408,30.169796 62.268059,29.527386 63.050553,29.471056 C 62.268059,29.414716 59.664409,28.772306 54.088736,23.421196 C 48.29539,17.861196 47.76377,14.501697 47.73765,13.605876 z "
   id="path2243" /><path
   id="path3230"
   d="M 16.37244,29.718758 C 16.36459,29.988114 16.20473,30.998264 14.46276,32.670073 C 12.78625,34.279073 12.00337,34.472229 11.76808,34.489173 C 12.00337,34.506114 12.78625,34.699276 14.46276,36.30827 C 16.20473,37.980079 16.36459,38.990226 16.37244,39.259585 C 16.38029,38.990229 16.54015,37.980082 18.28212,36.30827 C 19.95863,34.699273 20.74151,34.506111 20.9768,34.489173 C 20.74151,34.472232 19.95863,34.27907 18.28212,32.670073 C 16.54015,30.998267 16.38029,29.988117 16.37244,29.718758 z "
   style="fill:#e61408;fill-opacity:1;stroke:none;stroke-width:1.49999988;stroke-linecap:round;stroke-linejoin:round;stroke-miterlimit:4;stroke-dasharray:none;stroke-opacity:1" /><use
   x="0"
   y="0"
   xlink:href="#path3230"
   id="use3238"
   transform="translate(134.34155,173.58212)"
   width="167.08643"
   height="242.66748" /><path
   id="use2206"
   d="M 118.40805,13.605877 C 118.38193,14.501687 117.8503,17.861187 112.05695,23.421197 C 106.48129,28.772317 103.87763,29.414707 103.09514,29.471057 C 103.87763,29.527397 106.48129,30.169807 112.05695,35.520908 C 117.8503,41.080918 118.38193,44.440408 118.40805,45.336228 C 118.43417,44.440418 118.96579,41.080928 124.75914,35.520908 C 130.33481,30.169797 132.93846,29.527387 133.72095,29.471057 C 132.93846,29.414717 130.33481,28.772307 124.75914,23.421197 C 118.96579,17.861197 118.43417,14.501697 118.40805,13.605877 z "
   style="fill:#e61408;fill-opacity:1;stroke:none;stroke-width:1.49999988;stroke-linecap:round;stroke-linejoin:round;stroke-miterlimit:4;stroke-dasharray:none;stroke-opacity:1" /><use
   x="0"
   y="0"
   xlink:href="#use2206"
   id="use2208"
   transform="translate(-34.864834,30.617195)"
   width="167.08643"
   height="242.66748" /><use
   x="0"
   y="0"
   xlink:href="#use2208"
   id="use2210"
   transform="translate(-35.805569,30.617196)"
   width="167.08643"
   height="242.66748" /><use
   x="0"
   y="0"
   xlink:href="#use2210"
   id="use2212"
   transform="translate(70.6704,-3e-6)"
   width="167.08643"
   height="242.66748" /><use
   x="0"
   y="0"
   xlink:href="#use2212"
   id="use2214"
   transform="translate(-70.670404,61.23439)"
   width="167.08643"
   height="242.66748" /><use
   x="0"
   y="0"
   xlink:href="#use2214"
   id="use2216"
   transform="translate(69.4683,-1.4419742e-6)"
   width="167.08643"
   height="242.66748" /><use
   x="0"
   y="0"
   xlink:href="#use2216"
   id="use2218"
   transform="translate(-33.662731,30.61719)"
   width="167.08643"
   height="242.66748" /><use
   x="0"
   y="0"
   xlink:href="#use2218"
   id="use2220"
   transform="translate(-35.805569,30.617196)"
   width="167.08643"
   height="242.66748" /><use
   x="0"
   y="0"
   xlink:href="#use2220"
   id="use2222"
   transform="translate(70.6704,-3.5000001e-6)"
   width="167.08643"
   height="242.66748" /><use
   x="0"
   y="0"
   xlink:href="#use2206"
   id="use2610"
   transform="translate(-34.864432,91.86269)"
   width="167.08643"
   height="242.66748" /><path
   style="fill:#e61408;fill-opacity:1;fill-rule:nonzero;stroke-miterlimit:4"
   id="path2573"
   d="M 16.65194,25.871157 L 16.65194,24.402407 L 18.151939,24.402407 L 18.151939,9.8042631 L 16.46444,12.027895 L 16.46444,10.227114 L 18.492759,7.4961576 L 20.183189,7.4961576 L 20.183189,24.402407 L 21.714439,24.402407 L 21.714439,25.871157 L 16.65194,25.871157 L 16.65194,25.871157 z" /><path
   style="fill:#e61408;fill-opacity:1;fill-rule:nonzero;stroke-miterlimit:4"
   id="path2575"
   d="M 149.02754,216.79601 L 149.02754,218.26476 L 147.52754,218.26476 L 147.52754,232.86339 L 149.21504,230.63976 L 149.21504,232.44054 L 147.18575,235.17101 L 145.49629,235.17101 L 145.49629,218.26476 L 143.96504,218.26476 L 143.96504,216.79601 L 149.02754,216.79601 L 149.02754,216.79601 z" /></svg>