<?xml version="1.0" encoding="UTF-8" standalone="no"?>
<!-- Generator: Adobe Illustrator 9.0, SVG Export Plug-In  -->
<!-- This set of SVG files is a complete cards game with figures, numbers	-->
<!--    and backs of cards completely designed in SVG.				-->
<!--    									-->
<!--    Copyright (C) 2004 David Bellot						-->
<!--										-->
<!--    This library is free software; you can redistribute it and/or		-->
<!--    modify it under the terms of the GNU Lesser General Public		-->
<!--    License as published by the Free Software Foundation; either		-->
<!--    version 2 of the License, or (at your option) any later version		-->
<!--										-->
<!--    This library is distributed in the hope that it will be useful,		-->
<!--    but WITHOUT ANY WARRANTY; without even the implied warranty of		-->
<!--    MERCHANTABILITY or FITNESS FOR A PARTICULAR PURPOSE.  See the GNU	-->
<!--    Lesser General Public License for more details.				-->
<!--										-->
<!--    You should have received a copy of the GNU Lesser General Public	-->
<!--    License along with this library; if not, write to the Free Software	-->
<!--    Foundation, Inc., 59 Temple Place, Suite 330, Boston, MA 02111-1307  USA-->
<!--										-->
<!--    Contact the author David Bellot at bellot@stat.berkeley.edu or 		-->
<!--    david.bellot@free.fr or yimyom@users.sourceforge.net			-->
<svg
   xmlns:dc="http://purl.org/dc/elements/1.1/"
   xmlns:cc="http://creativecommons.org/ns#"
   xmlns:rdf="http://www.w3.org/1999/02/22-rdf-syntax-ns#"
   xmlns:svg="http://www.w3.org/2000/svg"
   xmlns="http://www.w3.org/2000/svg"
   xmlns:xlink="http://www.w3.org/1999/xlink"
   xmlns:sodipodi="http://sodipodi.sourceforge.net/DTD/sodipodi-0.dtd"
   xmlns:inkscape="http://www.inkscape.org/namespaces/inkscape"
   width="208"
   height="303"
   viewBox="0 0 167.08643 242.66748"
   xml:space="preserve"
   id="svg2"
   sodipodi:version="0.32"
   inkscape:version="0.46"
   sodipodi:docname="11_of_spades.svg"
   inkscape:output_extension="org.inkscape.output.svg.inkscape"
   sodipodi:docbase="C:\Documents and Settings\Flanker\Desktop\Temporanei\SVG\Carte"
   version="1.0"><metadata
   id="metadata90"><rdf:RDF><cc:Work
       rdf:about=""><dc:format>image/svg+xml</dc:format><dc:type
         rdf:resource="http://purl.org/dc/dcmitype/StillImage" /></cc:Work></rdf:RDF></metadata><defs
   id="defs88"><inkscape:perspective
   sodipodi:type="inkscape:persp3d"
   inkscape:vp_x="0 : 151.5 : 1"
   inkscape:vp_y="0 : 1000 : 0"
   inkscape:vp_z="208 : 151.5 : 1"
   inkscape:persp3d-origin="104 : 101 : 1"
   id="perspective2979" />
			
			
		
			
			
		</defs><sodipodi:namedview
   inkscape:window-height="785"
   inkscape:window-width="1280"
   inkscape:pageshadow="2"
   inkscape:pageopacity="0.0"
   guidetolerance="10.0"
   gridtolerance="10.0"
   objecttolerance="10.0"
   borderopacity="1.0"
   bordercolor="#666666"
   pagecolor="#ffffff"
   id="base"
   inkscape:zoom="1.7576595"
   inkscape:cx="183.45199"
   inkscape:cy="156.81604"
   inkscape:window-x="0"
   inkscape:window-y="0"
   inkscape:current-layer="svg2"
   inkscape:showpageshadow="false"
   width="208px"
   height="303px"
   showgrid="false" />
	<path
   id="path5"
   d="M 166.83643,235.89281 C 166.83643,239.68452 163.75049,242.78371 159.96632,242.78371 L 7.1113279,242.78371 C 3.3359375,242.78371 0.25,239.68452 0.25,235.89281 L 0.25,6.7746664 C 0.25,2.9883464 3.3359375,-0.11623011 7.1113279,-0.11623011 L 159.96632,-0.11623011 C 163.75049,-0.11623011 166.83643,2.9883464 166.83643,6.7746664 L 166.83643,235.89281 L 166.83643,235.89281 z "
   style="fill:#ffffff;fill-rule:nonzero;stroke:#000000;stroke-width:0.5;stroke-miterlimit:4" /><path
   style="fill-rule:nonzero;stroke-miterlimit:4"
   id="path5887"
   d="M 9.8114044,25.871094 L 9.8114044,24.402344 L 11.311404,24.402344 L 11.311404,9.8041994 L 9.6239044,12.027832 L 9.6239044,10.227051 L 11.652224,7.4960939 L 13.342654,7.4960939 L 13.342654,24.402344 L 14.873904,24.402344 L 14.873904,25.871094 L 9.8114044,25.871094 L 9.8114044,25.871094 z" /><path
   style="fill-rule:nonzero;stroke-miterlimit:4"
   id="path5893"
   d="M 157.27551,216.79639 L 157.27551,218.26514 L 155.77551,218.26514 L 155.77551,232.86377 L 157.46301,230.64014 L 157.46301,232.44092 L 155.43372,235.17139 L 153.74426,235.17139 L 153.74426,218.26514 L 152.21301,218.26514 L 152.21301,216.79639 L 157.27551,216.79639 L 157.27551,216.79639 z" />
<path
   style="fill-rule:nonzero;stroke:none;stroke-miterlimit:4"
   d="M 47.737651,12.940642 C 44.553071,18.672092 33.700461,23.922822 33.679891,31.165512 C 33.670181,34.585422 36.825961,37.340882 40.708771,37.340882 C 43.182281,37.340882 45.380211,36.230792 46.633111,34.529332 C 46.109681,39.453702 44.705721,44.957192 39.579131,46.001462 L 47.737651,46.001462 L 55.896161,46.001462 C 50.769581,44.957192 49.365611,39.453702 48.842181,34.529332 C 50.095091,36.230792 52.293011,37.340882 54.766521,37.340882 C 58.649341,37.340882 61.805111,34.585422 61.795401,31.165512 C 61.774831,23.922822 50.922221,18.672092 47.737651,12.940642 z "
   id="path2254"
   sodipodi:nodetypes="csscccccssc" /><path
   id="path2273"
   d="M 16.37244,29.321959 C 15.4152,31.044753 12.15598,32.623058 12.14687,34.800104 C 12.14687,35.828088 13.09254,36.656335 14.25966,36.656335 C 15.00316,36.656335 15.66383,36.322657 16.04043,35.811222 C 15.8831,37.291419 15.46108,38.945692 13.9201,39.259585 L 16.37244,39.259585 L 18.82478,39.259585 C 17.2838,38.945692 16.86178,37.291419 16.70445,35.811222 C 17.08105,36.322657 17.74172,36.656335 18.48522,36.656335 C 19.65234,36.656335 20.59801,35.828088 20.59801,34.800104 C 20.5889,32.623058 17.32968,31.044753 16.37244,29.321959 z "
   style="fill-rule:nonzero;stroke:none;stroke-miterlimit:4" /><use
   x="0"
   y="0"
   xlink:href="#path2273"
   id="use2277"
   transform="matrix(1,0,0,-1,134.34155,242.36206)"
   width="167.08643"
   height="242.66748" /><use
   x="0"
   y="0"
   xlink:href="#path2254"
   id="use2207"
   transform="matrix(1,0,0,-1,70.670399,242.64527)"
   width="167.08643"
   height="242.66748" /><use
   x="0"
   y="0"
   xlink:href="#path2254"
   id="use2211"
   transform="matrix(1,0,0,-1,-9.9996478e-7,242.64527)"
   width="167.08643"
   height="242.66748" /><use
   x="0"
   y="0"
   xlink:href="#path2254"
   id="use2213"
   transform="matrix(1,0,0,-1,35.805569,212.02807)"
   width="167.08643"
   height="242.66748" /><use
   x="0"
   y="0"
   xlink:href="#path2254"
   id="use2215"
   transform="matrix(1,0,0,-1,69.468299,181.41088)"
   width="167.08643"
   height="242.66748" /><use
   x="0"
   y="0"
   xlink:href="#path2254"
   id="use2217"
   transform="matrix(1,0,0,-1,-9.9996478e-7,181.41088)"
   width="167.08643"
   height="242.66748" /><use
   x="0"
   y="0"
   xlink:href="#path2254"
   id="use2219"
   transform="translate(70.670399,61.234387)"
   width="167.08643"
   height="242.66748" /><use
   x="0"
   y="0"
   xlink:href="#path2254"
   id="use2221"
   transform="translate(-9.9996478e-7,61.23439)"
   width="167.08643"
   height="242.66748" /><use
   x="0"
   y="0"
   xlink:href="#path2254"
   id="use2223"
   transform="translate(35.805569,30.617194)"
   width="167.08643"
   height="242.66748" /><use
   x="0"
   y="0"
   xlink:href="#path2254"
   id="use2225"
   transform="translate(70.670399,-2e-6)"
   width="167.08643"
   height="242.66748" /><use
   x="0"
   y="0"
   xlink:href="#path2254"
   id="use2981"
   transform="translate(35.805594,91.862588)"
   width="167.08643"
   height="242.66748" /><path
   style="fill-rule:nonzero;stroke-miterlimit:4"
   id="path2845"
   d="M 16.65194,25.871157 L 16.65194,24.402407 L 18.15194,24.402407 L 18.15194,9.8042625 L 16.46444,12.027895 L 16.46444,10.227114 L 18.49276,7.4961575 L 20.18319,7.4961575 L 20.18319,24.402407 L 21.71444,24.402407 L 21.71444,25.871157 L 16.65194,25.871157 L 16.65194,25.871157 z" /><path
   style="fill-rule:nonzero;stroke-miterlimit:4"
   id="path2847"
   d="M 149.02754,216.79601 L 149.02754,218.26476 L 147.52754,218.26476 L 147.52754,232.86339 L 149.21504,230.63976 L 149.21504,232.44054 L 147.18575,235.17101 L 145.49629,235.17101 L 145.49629,218.26476 L 143.96504,218.26476 L 143.96504,216.79601 L 149.02754,216.79601 L 149.02754,216.79601 z" /></svg>